# xmcd
#
# Track frame offsets:
#	150
#	13847
#	30238
#	49011
#	66832
#	83103
#	102711
#	121070
#	137799
#	149296
#	170183
#	175237
#
# Disc length: 2588 seconds
#
# Revision: 0
# Processed by: cddbd v1.5.2PL0 Copyright (c) Steve Scherf et al.
# Submitted via: dBpowerAMP V4.0
#
DISCID=a60a1a0c
DTITLE=Maria Mckee - Late December
DYEAR=2007
DGENRE=Blues
TTITLE0=Late December
TTITLE1=No Other Way To Love You
TTITLE2=A good Heart
TTITLE3=Power on, Little Star
TTITLE4=Too Many Heroes
TTITLE5=Destine
TTITLE6=My First Night Without You
TTITLE7=Scene Of The Affair
TTITLE8=Cat In the Wall
TTITLE9=One Eye on the Sky (One on the grave)
TTITLE10=Bannow
TTITLE11=Starving Pretty
EXTD=
EXTT0=
EXTT1=
EXTT2=
EXTT3=
EXTT4=
EXTT5=
EXTT6=
EXTT7=
EXTT8=
EXTT9=
EXTT10=
EXTT11=
PLAYORDER=
